<?xml version="1.0" encoding="UTF-8" standalone="no"?>
<!-- Generator: Adobe Illustrator 15.0.2, SVG Export Plug-In . SVG Version: 6.00 Build 0)  -->

<svg
   xmlns:dc="http://purl.org/dc/elements/1.1/"
   xmlns:cc="http://creativecommons.org/ns#"
   xmlns:rdf="http://www.w3.org/1999/02/22-rdf-syntax-ns#"
   xmlns:svg="http://www.w3.org/2000/svg"
   xmlns="http://www.w3.org/2000/svg"
   xmlns:xlink="http://www.w3.org/1999/xlink"
   xmlns:sodipodi="http://sodipodi.sourceforge.net/DTD/sodipodi-0.dtd"
   xmlns:inkscape="http://www.inkscape.org/namespaces/inkscape"
   version="1.1"
   id="Layer_1"
   x="0px"
   y="0px"
   width="1190.55px"
   height="841.89px"
   viewBox="0 0 1190.55 841.89"
   enable-background="new 0 0 1190.55 841.89"
   xml:space="preserve"
   inkscape:version="0.48.5 r10040"
   sodipodi:docname="JOSM_inkscape_2.svg"><metadata
     id="metadata3223"><rdf:RDF><cc:Work
         rdf:about=""><dc:format>image/svg+xml</dc:format><dc:type
           rdf:resource="http://purl.org/dc/dcmitype/StillImage" /><dc:title></dc:title></cc:Work></rdf:RDF></metadata><defs
     id="defs3221"><filter
       id="filter3993"
       inkscape:label="filter1"><feBlend
         blend="normal"
         id="feBlend3997" /></filter></defs><sodipodi:namedview
     pagecolor="#ffffff"
     bordercolor="#666666"
     borderopacity="1"
     objecttolerance="10"
     gridtolerance="10"
     guidetolerance="10"
     inkscape:pageopacity="0"
     inkscape:pageshadow="2"
     inkscape:window-width="1682"
     inkscape:window-height="994"
     id="namedview3219"
     showgrid="false"
     inkscape:zoom="0.69577257"
     inkscape:cx="537.70516"
     inkscape:cy="478.23692"
     inkscape:window-x="0"
     inkscape:window-y="0"
     inkscape:window-maximized="0"
     inkscape:current-layer="Layer_1"
     inkscape:snap-bbox="true" /><g
     id="g3125"><defs
       id="defs3127"><polygon
         id="SVGID_1_"
         points="370.301,487.924 410.354,478.143 443.301,440.924 479.301,452.924 541.301,417.924     575.301,460.979 636.301,424.924 671.301,446.924 699.301,417.924 755.301,452.924 763.301,433.924 820.301,452.924     754.301,473.924 715.301,490.924 702.301,509.924 675.301,491.924 630.301,484.924 600.431,503.137 542.301,493.924     498.301,472.924 472.301,491.924 429.301,503.924   " /></defs><use
       xlink:href="#SVGID_1_"
       overflow="visible"
       id="use3130"
       style="fill:#99cc33;overflow:visible"
       x="0"
       y="0"
       width="1190.55"
       height="841.89001" /><clipPath
       id="SVGID_2_"><use
         xlink:href="#SVGID_1_"
         overflow="visible"
         id="use3133" /></clipPath><path
       transform="matrix(1.3372239,0,0,1.3396348,-149.48731,-149.75585)"
       style="fill:#d6f55c;fill-opacity:1"
       clip-path="url(#SVGID_2_)"
       d="m 417.705,467.812 9.78559,10.19496 L 443.288,440.932 z"
       id="polygon3135"
       inkscape:connector-curvature="0"
       sodipodi:nodetypes="cccc" /><path
       style="fill:#5ca30a;fill-opacity:1"
       clip-path="url(#SVGID_2_)"
       d="M 527.301,474.924 541.18505,417.63452 557.301,483.924 z"
       id="polygon3139"
       inkscape:connector-curvature="0"
       sodipodi:nodetypes="cccc" /><polygon
       clip-path="url(#SVGID_2_)"
       points="790.301,482.924 721.301,499.258 693.301,461.924 "
       id="polygon3141"
       style="fill:#5ca30a;fill-opacity:1" /><path
       style="fill:#5ca30a;fill-opacity:1"
       clip-path="url(#SVGID_2_)"
       d="M 820.2676,452.86524 800.45622,459.51307 763.301,433.955 z"
       id="polygon3143"
       inkscape:connector-curvature="0"
       sodipodi:nodetypes="cccc" /><path
       style="fill:#d6f55c;fill-opacity:1"
       clip-path="url(#SVGID_2_)"
       d="M 804.95745,462.53965 755.301,452.924 l 7.984,-19.016 z"
       id="polygon3145"
       inkscape:connector-curvature="0"
       sodipodi:nodetypes="cccc" /><path
       style="fill:#5ca30a;fill-opacity:1"
       clip-path="url(#SVGID_2_)"
       d="m 651.301,464.592 -21,20.332 5.9943,-60.04896 47.48288,30.13402 z"
       id="polygon3147"
       inkscape:connector-curvature="0"
       sodipodi:nodetypes="ccccc" /><path
       style="fill:#5ca30a;fill-opacity:1"
       clip-path="url(#SVGID_2_)"
       d="m 483.635,492.424 18.166,-24 41.167,25.834 -114.333,18.334 -19.325,-6.674 -34.099,-11.773 -20.91,-7.221 40.334,-23 28,25.334 z"
       id="polygon3149" /><path
       style="fill:#5ca30a;fill-opacity:1"
       clip-path="url(#SVGID_2_)"
       d="m 755.301,452.924 -56.00156,-35.00733 c 3.36919,13.70252 5.66823,23.34066 9.00156,37.00733 z"
       id="polygon3153"
       inkscape:connector-curvature="0"
       sodipodi:nodetypes="cccc" /><path
       style="fill:#d6f55c;fill-opacity:1"
       clip-path="url(#SVGID_2_)"
       d="M 476.50791,451.96677 541.39277,417.57532 498.276,459.387 z"
       id="polygon3157"
       inkscape:connector-curvature="0"
       sodipodi:nodetypes="cccc" /><path
       style="fill:#d6f55c;fill-opacity:1"
       clip-path="url(#SVGID_2_)"
       d="M 605.301,480.592 636.31059,424.88527 630.269,484.93 z"
       id="polygon3159"
       inkscape:connector-curvature="0"
       sodipodi:nodetypes="cccc" /><g
       clip-path="url(#SVGID_2_)"
       id="g3161"
       style="fill:#ff00ff"><polygon
         points="630.32,484.955 602.32,505.715 583.967,476.592 "
         id="polygon3163"
         style="fill:#5ca30a;fill-opacity:1" /></g></g><path
     fill="none"
     stroke="#0080C6"
     stroke-width="10"
     stroke-dasharray="22"
     d="M414.9,422.018c0,0-22.5-170.992,176.99-170.992"
     id="path3167" /><polygon
     fill="#FFFFFF"
     stroke="#000000"
     stroke-width="4"
     stroke-linecap="round"
     stroke-linejoin="round"
     points="605.89,255.911   605.889,255.909 605.89,255.911 605.888,255.909 605.889,255.912 614.062,356.698 629.021,332.558 646.554,368.67 657.948,363.139   657.949,363.138 669.343,357.606 651.811,321.494 680.031,324.67 "
     id="polygon3169" /><g
     id="g3171"><path
       d="M288.376,543.564v31.68c0,1.801-0.21,3.441-0.63,4.92c-0.42,1.48-1.09,2.76-2.01,3.84c-0.921,1.08-2.13,1.912-3.63,2.49   c-1.5,0.58-3.33,0.871-5.49,0.871c-2.04,0-3.78-0.291-5.22-0.871c-1.44-0.578-2.62-1.389-3.54-2.43   c-0.921-1.039-1.59-2.27-2.01-3.689s-0.63-2.971-0.63-4.65v-2.58h1.2v2.58c0,3.52,0.86,6.15,2.58,7.891   c1.72,1.74,4.26,2.609,7.62,2.609c1.719,0,3.229-0.199,4.53-0.6c1.3-0.4,2.4-1.061,3.3-1.98s1.58-2.139,2.04-3.66   c0.459-1.52,0.69-3.398,0.69-5.639v-30.781H288.376z"
       id="path3173" /><path
       d="M296.056,561.055c0.519-1.26,1.269-2.35,2.25-3.27c0.979-0.92,2.18-1.641,3.6-2.16c1.419-0.52,3.09-0.779,5.01-0.779   c1.359,0,2.649,0.141,3.87,0.42c1.22,0.279,2.289,0.77,3.21,1.469c0.919,0.701,1.659,1.611,2.22,2.73   c0.56,1.121,0.86,2.52,0.9,4.199v19.621c0,0.6,0.12,1.041,0.36,1.32c0.24,0.279,0.56,0.471,0.96,0.568   c0.399,0.102,0.83,0.141,1.29,0.121c0.459-0.02,0.89-0.051,1.29-0.09v1.199h-1.8c-0.88,0-1.65-0.209-2.31-0.629   c-0.66-0.42-0.99-1.211-0.99-2.371v-4.02h-0.12c-0.32,1-0.831,1.961-1.53,2.881c-0.7,0.92-1.581,1.738-2.64,2.459   c-1.06,0.721-2.271,1.291-3.63,1.711c-1.36,0.42-2.841,0.629-4.44,0.629c-3.12,0-5.621-0.689-7.5-2.07   c-1.881-1.379-2.82-3.449-2.82-6.209c0-1.92,0.31-3.459,0.93-4.621c0.62-1.158,1.43-2.068,2.43-2.729   c0.999-0.66,2.139-1.121,3.42-1.381c1.28-0.26,2.559-0.43,3.84-0.51c2.12-0.121,3.939-0.23,5.46-0.33c1.52-0.1,2.77-0.301,3.75-0.6   c0.98-0.301,1.7-0.76,2.16-1.381c0.459-0.619,0.69-1.51,0.69-2.67c0-0.92-0.081-1.879-0.24-2.879c-0.16-1-0.55-1.92-1.17-2.762   c-0.621-0.84-1.53-1.529-2.73-2.068c-1.2-0.541-2.82-0.811-4.86-0.811c-3.24,0-5.76,0.791-7.56,2.369c-1.8,1.582-2.8,3.811-3,6.691   h-1.2C295.235,563.664,295.535,562.314,296.056,561.055z M315.795,568.285c-0.4,0.561-1.02,0.99-1.86,1.289   c-0.84,0.301-1.8,0.531-2.88,0.691s-2.25,0.26-3.51,0.299c-1.26,0.041-2.49,0.102-3.69,0.18c-1.2,0.082-2.37,0.23-3.51,0.451   c-1.14,0.221-2.151,0.619-3.03,1.199c-0.88,0.58-1.581,1.381-2.1,2.4c-0.52,1.02-0.78,2.35-0.78,3.99c0,0.881,0.15,1.75,0.45,2.609   c0.3,0.861,0.81,1.621,1.53,2.279c0.72,0.66,1.65,1.201,2.79,1.621s2.55,0.629,4.23,0.629c2,0,3.78-0.338,5.34-1.02   c1.56-0.68,2.87-1.568,3.93-2.67c1.06-1.1,1.86-2.369,2.4-3.811c0.54-1.439,0.81-2.918,0.81-4.439v-5.699H315.795z"
       id="path3175" /><path
       d="M345.915,555.564l-11.64,30.84h-1.5l-12.66-30.84h1.38l11.94,29.641h0.12l11.04-29.641H345.915z"
       id="path3177" /><path
       d="M349.335,561.055c0.519-1.26,1.269-2.35,2.25-3.27c0.979-0.92,2.18-1.641,3.6-2.16c1.419-0.52,3.09-0.779,5.01-0.779   c1.359,0,2.649,0.141,3.87,0.42c1.22,0.279,2.289,0.77,3.21,1.469c0.919,0.701,1.659,1.611,2.22,2.73   c0.56,1.121,0.86,2.52,0.9,4.199v19.621c0,0.6,0.12,1.041,0.36,1.32c0.24,0.279,0.56,0.471,0.96,0.568   c0.399,0.102,0.83,0.141,1.29,0.121c0.459-0.02,0.89-0.051,1.29-0.09v1.199h-1.8c-0.88,0-1.65-0.209-2.31-0.629   c-0.66-0.42-0.99-1.211-0.99-2.371v-4.02h-0.12c-0.32,1-0.831,1.961-1.53,2.881c-0.7,0.92-1.581,1.738-2.64,2.459   c-1.06,0.721-2.271,1.291-3.63,1.711c-1.36,0.42-2.841,0.629-4.44,0.629c-3.12,0-5.621-0.689-7.5-2.07   c-1.881-1.379-2.82-3.449-2.82-6.209c0-1.92,0.31-3.459,0.93-4.621c0.62-1.158,1.43-2.068,2.43-2.729   c0.999-0.66,2.139-1.121,3.42-1.381c1.28-0.26,2.559-0.43,3.84-0.51c2.12-0.121,3.939-0.23,5.46-0.33c1.52-0.1,2.77-0.301,3.75-0.6   c0.98-0.301,1.7-0.76,2.16-1.381c0.459-0.619,0.69-1.51,0.69-2.67c0-0.92-0.081-1.879-0.24-2.879c-0.16-1-0.55-1.92-1.17-2.762   c-0.621-0.84-1.53-1.529-2.73-2.068c-1.2-0.541-2.82-0.811-4.86-0.811c-3.24,0-5.76,0.791-7.56,2.369c-1.8,1.582-2.8,3.811-3,6.691   h-1.2C348.515,563.664,348.814,562.314,349.335,561.055z M369.075,568.285c-0.4,0.561-1.02,0.99-1.86,1.289   c-0.84,0.301-1.8,0.531-2.88,0.691s-2.25,0.26-3.51,0.299c-1.26,0.041-2.49,0.102-3.69,0.18c-1.2,0.082-2.37,0.23-3.51,0.451   c-1.14,0.221-2.151,0.619-3.03,1.199c-0.88,0.58-1.581,1.381-2.1,2.4c-0.52,1.02-0.78,2.35-0.78,3.99c0,0.881,0.15,1.75,0.45,2.609   c0.3,0.861,0.81,1.621,1.53,2.279c0.72,0.66,1.65,1.201,2.79,1.621s2.55,0.629,4.23,0.629c2,0,3.78-0.338,5.34-1.02   c1.56-0.68,2.87-1.568,3.93-2.67c1.06-1.1,1.86-2.369,2.4-3.811c0.54-1.439,0.81-2.918,0.81-4.439v-5.699H369.075z"
       id="path3179" /><path
       d="M393.944,556.346c0.86-2.721,2.12-5.102,3.78-7.141c1.659-2.041,3.72-3.66,6.18-4.859c2.46-1.201,5.29-1.801,8.49-1.801   c3.2,0,6.03,0.6,8.49,1.801c2.46,1.199,4.52,2.818,6.18,4.859c1.659,2.039,2.919,4.42,3.78,7.141c0.86,2.719,1.29,5.6,1.29,8.639   c0,3.041-0.43,5.92-1.29,8.641c-0.86,2.721-2.121,5.1-3.78,7.141c-1.66,2.039-3.72,3.65-6.18,4.83c-2.46,1.178-5.29,1.77-8.49,1.77   c-3.201,0-6.03-0.592-8.49-1.77c-2.46-1.18-4.521-2.791-6.18-4.83c-1.661-2.041-2.92-4.42-3.78-7.141   c-0.86-2.721-1.29-5.6-1.29-8.641C392.654,561.945,393.083,559.064,393.944,556.346z M395.204,573.504   c0.859,2.602,2.079,4.842,3.66,6.721c1.58,1.881,3.51,3.352,5.79,4.41c2.28,1.061,4.86,1.59,7.74,1.59c2.88,0,5.46-0.529,7.74-1.59   c2.28-1.059,4.209-2.529,5.79-4.41c1.58-1.879,2.799-4.119,3.66-6.721c0.859-2.6,1.31-5.439,1.35-8.52   c-0.041-3.08-0.491-5.92-1.35-8.52c-0.861-2.6-2.081-4.84-3.66-6.721c-1.581-1.879-3.51-3.35-5.79-4.41   c-2.28-1.059-4.86-1.59-7.74-1.59c-2.88,0-5.46,0.531-7.74,1.59c-2.28,1.061-4.21,2.531-5.79,4.41   c-1.581,1.881-2.8,4.121-3.66,6.721c-0.861,2.6-1.311,5.439-1.35,8.52C393.893,568.064,394.343,570.904,395.204,573.504z"
       id="path3181" /><path
       d="M437.293,596.965v-41.4h1.2v8.641h0.12c0.399-1.359,0.979-2.609,1.74-3.75c0.759-1.141,1.66-2.131,2.7-2.971   c1.04-0.84,2.229-1.49,3.57-1.949c1.34-0.459,2.79-0.689,4.35-0.689c2.04,0,3.87,0.398,5.49,1.199c1.62,0.801,3,1.92,4.14,3.359   c1.14,1.441,2.01,3.141,2.61,5.1c0.6,1.961,0.9,4.102,0.9,6.42c0,2.16-0.291,4.221-0.87,6.182c-0.58,1.959-1.42,3.68-2.52,5.16   c-1.101,1.479-2.47,2.65-4.11,3.51c-1.641,0.859-3.521,1.289-5.64,1.289c-3.28,0-5.98-0.85-8.1-2.549   c-2.121-1.701-3.54-3.951-4.26-6.75h-0.12v19.199H437.293z M456.404,584.574c1.5-0.9,2.73-2.059,3.69-3.479s1.669-3.021,2.13-4.801   c0.459-1.779,0.69-3.57,0.69-5.371c0-1.998-0.25-3.889-0.75-5.67c-0.5-1.779-1.24-3.359-2.22-4.738   c-0.981-1.381-2.22-2.471-3.72-3.271c-1.5-0.799-3.25-1.199-5.25-1.199c-1.96,0-3.72,0.4-5.28,1.199   c-1.56,0.801-2.871,1.881-3.93,3.24c-1.061,1.361-1.87,2.939-2.43,4.74c-0.561,1.801-0.84,3.701-0.84,5.699   c0,4.842,1.14,8.551,3.42,11.131c2.28,2.58,5.3,3.869,9.06,3.869C453.093,585.924,454.904,585.475,456.404,584.574z"
       id="path3183" /><path
       d="M469.663,577.016c0.459,1.779,1.17,3.33,2.13,4.648c0.96,1.32,2.199,2.361,3.72,3.121c1.52,0.76,3.38,1.139,5.58,1.139   c3.24,0,5.93-0.848,8.07-2.549c2.139-1.699,3.47-4.25,3.99-7.65h1.2c-0.441,3.6-1.86,6.391-4.26,8.371   c-2.4,1.979-5.36,2.969-8.88,2.969c-2.4,0.039-4.45-0.34-6.15-1.141c-1.701-0.799-3.09-1.928-4.17-3.389   c-1.08-1.461-1.881-3.18-2.4-5.16c-0.52-1.98-0.78-4.109-0.78-6.391c0-2.559,0.38-4.84,1.14-6.84c0.759-2,1.76-3.689,3-5.07   c1.239-1.379,2.679-2.43,4.32-3.15c1.64-0.719,3.32-1.078,5.04-1.078c2.4,0,4.47,0.459,6.21,1.379c1.74,0.92,3.159,2.141,4.26,3.66   c1.1,1.521,1.899,3.26,2.4,5.221c0.5,1.959,0.709,4,0.63,6.119h-25.8C468.952,573.305,469.203,575.236,469.663,577.016z    M492.733,564.654c-0.521-1.699-1.29-3.189-2.31-4.469c-1.02-1.281-2.29-2.291-3.81-3.031c-1.521-0.738-3.28-1.109-5.28-1.109   c-1.68,0-3.25,0.32-4.71,0.959c-1.461,0.641-2.74,1.57-3.84,2.791c-1.101,1.221-1.99,2.691-2.67,4.41   c-0.681,1.721-1.08,3.66-1.2,5.82h24.6C493.513,568.145,493.252,566.355,492.733,564.654z"
       id="path3185" /><path
       d="M500.713,555.564v7.621h0.12c0.279-1.201,0.729-2.301,1.35-3.301c0.62-1,1.399-1.879,2.34-2.641   c0.939-0.758,2.03-1.35,3.27-1.77c1.239-0.42,2.619-0.629,4.14-0.629c1.599,0,3.069,0.238,4.41,0.719   c1.34,0.48,2.5,1.191,3.48,2.131c0.98,0.939,1.74,2.1,2.28,3.479c0.54,1.381,0.81,2.971,0.81,4.771v20.459h-1.2v-20.279   c0-1.801-0.261-3.33-0.78-4.59c-0.521-1.26-1.23-2.301-2.13-3.121c-0.9-0.818-1.94-1.418-3.12-1.799   c-1.181-0.381-2.43-0.57-3.75-0.57c-1.84,0-3.46,0.35-4.86,1.051c-1.4,0.699-2.57,1.641-3.51,2.818   c-0.94,1.182-1.65,2.551-2.13,4.111c-0.48,1.559-0.72,3.199-0.72,4.92v17.459h-1.2v-30.84H500.713z"
       id="path3187" /><path
       d="M556.843,550.016c-0.741-1.5-1.72-2.721-2.94-3.66c-1.221-0.939-2.67-1.611-4.35-2.01c-1.68-0.4-3.48-0.602-5.4-0.602   c-1.48,0-3.021,0.15-4.62,0.451c-1.6,0.299-3.05,0.83-4.35,1.59c-1.3,0.76-2.37,1.77-3.21,3.029c-0.84,1.26-1.26,2.85-1.26,4.77   s0.429,3.461,1.29,4.621c0.86,1.16,1.98,2.1,3.36,2.82c1.38,0.719,2.95,1.279,4.71,1.68c1.76,0.4,3.56,0.82,5.4,1.26   c2,0.52,3.89,1.02,5.67,1.5c1.779,0.48,3.33,1.121,4.65,1.92c1.32,0.801,2.37,1.859,3.15,3.18s1.17,3.102,1.17,5.34   c0,2.041-0.44,3.781-1.32,5.221c-0.88,1.439-2.04,2.631-3.48,3.57s-3.06,1.619-4.86,2.039c-1.8,0.42-3.621,0.631-5.46,0.631   c-2.44,0-4.69-0.281-6.75-0.84c-2.061-0.561-3.84-1.449-5.34-2.67s-2.661-2.791-3.48-4.711c-0.82-1.92-1.21-4.238-1.17-6.959h1.2   c0,2.559,0.379,4.73,1.14,6.51c0.759,1.779,1.83,3.23,3.21,4.35c1.38,1.121,3.02,1.93,4.92,2.43c1.899,0.5,3.99,0.75,6.27,0.75   c1.68,0,3.35-0.189,5.01-0.57c1.659-0.379,3.15-0.99,4.47-1.83c1.32-0.84,2.39-1.92,3.21-3.24c0.819-1.318,1.23-2.898,1.23-4.738   c0-2.16-0.471-3.871-1.41-5.131c-0.94-1.26-2.14-2.26-3.6-3c-1.46-0.74-3.081-1.299-4.86-1.68c-1.78-0.381-3.49-0.77-5.13-1.17   c-1.721-0.4-3.441-0.82-5.16-1.26c-1.72-0.439-3.27-1.051-4.65-1.83c-1.38-0.781-2.49-1.82-3.33-3.121   c-0.84-1.299-1.26-2.988-1.26-5.07c0-2.119,0.44-3.889,1.32-5.309c0.879-1.42,2.019-2.551,3.42-3.391   c1.399-0.84,2.97-1.439,4.71-1.801c1.74-0.359,3.47-0.539,5.19-0.539c2.12,0,4.07,0.23,5.85,0.689   c1.779,0.461,3.339,1.201,4.68,2.221c1.339,1.02,2.409,2.359,3.21,4.02c0.799,1.66,1.26,3.689,1.38,6.09h-1.2   C557.992,553.365,557.583,551.516,556.843,550.016z"
       id="path3189" /><path
       d="M569.472,580.404c0,1.16,0.129,2.061,0.39,2.701c0.259,0.639,0.589,1.119,0.99,1.439c0.399,0.32,0.84,0.51,1.32,0.57   c0.48,0.059,0.96,0.09,1.44,0.09c0.6,0,1.14-0.01,1.62-0.031c0.48-0.02,0.819-0.068,1.02-0.148v1.199   c-0.36,0.041-0.71,0.08-1.05,0.121c-0.34,0.039-0.97,0.059-1.89,0.059c-1.4,0-2.59-0.41-3.57-1.23   c-0.981-0.818-1.47-2.328-1.47-4.529v-23.879h-5.64v-1.201h5.64v-9.719h1.2v9.719h6.96v1.201h-6.96V580.404z"
       id="path3191" /><path
       d="M580.632,586.404v-30.84h1.2v7.621h0.12c0.279-1.16,0.72-2.25,1.32-3.271c0.6-1.02,1.4-1.908,2.4-2.67   c1-0.758,2.189-1.359,3.57-1.799c1.38-0.439,2.99-0.641,4.83-0.6v1.199c-2.121-0.121-3.951,0.17-5.49,0.869   c-1.541,0.701-2.811,1.66-3.81,2.881c-1,1.221-1.74,2.631-2.22,4.23s-0.72,3.24-0.72,4.92v17.459H580.632z"
       id="path3193" /><path
       d="M596.322,577.016c0.459,1.779,1.17,3.33,2.129,4.648c0.961,1.32,2.199,2.361,3.721,3.121c1.52,0.76,3.379,1.139,5.58,1.139   c3.24,0,5.93-0.848,8.07-2.549c2.139-1.699,3.469-4.25,3.989-7.65h1.2c-0.441,3.6-1.86,6.391-4.26,8.371   c-2.4,1.979-5.361,2.969-8.881,2.969c-2.399,0.039-4.449-0.34-6.149-1.141c-1.7-0.799-3.091-1.928-4.17-3.389   c-1.08-1.461-1.881-3.18-2.4-5.16c-0.521-1.98-0.78-4.109-0.78-6.391c0-2.559,0.381-4.84,1.141-6.84s1.76-3.689,3-5.07   c1.239-1.379,2.68-2.43,4.32-3.15c1.639-0.719,3.319-1.078,5.039-1.078c2.4,0,4.471,0.459,6.211,1.379s3.158,2.141,4.26,3.66   c1.1,1.521,1.898,3.26,2.4,5.221c0.499,1.959,0.709,4,0.629,6.119h-25.799C595.611,573.305,595.861,575.236,596.322,577.016z    M619.392,564.654c-0.521-1.699-1.29-3.189-2.31-4.469c-1.021-1.281-2.291-2.291-3.811-3.031c-1.521-0.738-3.28-1.109-5.279-1.109   c-1.681,0-3.251,0.32-4.711,0.959c-1.461,0.641-2.74,1.57-3.84,2.791c-1.101,1.221-1.99,2.691-2.67,4.41   c-0.681,1.721-1.08,3.66-1.199,5.82h24.6C620.172,568.145,619.911,566.355,619.392,564.654z"
       id="path3195" /><path
       d="M626.322,577.016c0.459,1.779,1.17,3.33,2.129,4.648c0.961,1.32,2.199,2.361,3.721,3.121c1.52,0.76,3.379,1.139,5.58,1.139   c3.24,0,5.93-0.848,8.07-2.549c2.139-1.699,3.469-4.25,3.989-7.65h1.2c-0.441,3.6-1.86,6.391-4.26,8.371   c-2.4,1.979-5.361,2.969-8.881,2.969c-2.399,0.039-4.449-0.34-6.149-1.141c-1.7-0.799-3.091-1.928-4.17-3.389   c-1.08-1.461-1.881-3.18-2.4-5.16c-0.521-1.98-0.78-4.109-0.78-6.391c0-2.559,0.381-4.84,1.141-6.84s1.76-3.689,3-5.07   c1.239-1.379,2.68-2.43,4.32-3.15c1.639-0.719,3.319-1.078,5.039-1.078c2.4,0,4.471,0.459,6.211,1.379s3.158,2.141,4.26,3.66   c1.1,1.521,1.898,3.26,2.4,5.221c0.499,1.959,0.709,4,0.629,6.119h-25.799C625.611,573.305,625.861,575.236,626.322,577.016z    M649.392,564.654c-0.521-1.699-1.29-3.189-2.31-4.469c-1.021-1.281-2.291-2.291-3.811-3.031c-1.521-0.738-3.28-1.109-5.279-1.109   c-1.681,0-3.251,0.32-4.711,0.959c-1.461,0.641-2.74,1.57-3.84,2.791c-1.101,1.221-1.99,2.691-2.67,4.41   c-0.681,1.721-1.08,3.66-1.199,5.82h24.6C650.172,568.145,649.911,566.355,649.392,564.654z"
       id="path3197" /><path
       d="M659.472,580.404c0,1.16,0.13,2.061,0.39,2.701c0.26,0.639,0.59,1.119,0.99,1.439c0.399,0.32,0.84,0.51,1.32,0.57   c0.479,0.059,0.959,0.09,1.439,0.09c0.6,0,1.141-0.01,1.62-0.031c0.479-0.02,0.819-0.068,1.021-0.148v1.199   c-0.36,0.041-0.711,0.08-1.051,0.121c-0.34,0.039-0.97,0.059-1.89,0.059c-1.4,0-2.591-0.41-3.569-1.23   c-0.981-0.818-1.471-2.328-1.471-4.529v-23.879h-5.641v-1.201h5.641v-9.719h1.2v9.719h6.96v1.201h-6.96V580.404z"
       id="path3199" /><path
       d="M710.891,543.564v42.84h-1.199v-41.34h-0.12l-18.181,41.34h-1.319l-18.181-41.34h-0.119v41.34h-1.2v-42.84h1.979   l18.12,41.281h0.12l18.12-41.281H710.891z"
       id="path3201" /><path
       d="M718.271,561.055c0.52-1.26,1.27-2.35,2.25-3.27c0.979-0.92,2.18-1.641,3.6-2.16s3.09-0.779,5.01-0.779   c1.359,0,2.65,0.141,3.871,0.42c1.219,0.279,2.289,0.77,3.209,1.469c0.92,0.701,1.66,1.611,2.221,2.73   c0.56,1.121,0.859,2.52,0.9,4.199v19.621c0,0.6,0.119,1.041,0.359,1.32s0.56,0.471,0.96,0.568c0.399,0.102,0.829,0.141,1.29,0.121   c0.459-0.02,0.89-0.051,1.29-0.09v1.199h-1.8c-0.881,0-1.65-0.209-2.311-0.629s-0.99-1.211-0.99-2.371v-4.02h-0.119   c-0.32,1-0.831,1.961-1.53,2.881c-0.7,0.92-1.581,1.738-2.64,2.459c-1.061,0.721-2.271,1.291-3.631,1.711s-2.84,0.629-4.439,0.629   c-3.12,0-5.621-0.689-7.5-2.07c-1.881-1.379-2.82-3.449-2.82-6.209c0-1.92,0.31-3.459,0.93-4.621   c0.62-1.158,1.43-2.068,2.431-2.729c0.999-0.66,2.14-1.121,3.42-1.381s2.56-0.43,3.84-0.51c2.12-0.121,3.939-0.23,5.46-0.33   c1.52-0.1,2.77-0.301,3.75-0.6c0.98-0.301,1.699-0.76,2.16-1.381c0.459-0.619,0.689-1.51,0.689-2.67c0-0.92-0.08-1.879-0.24-2.879   s-0.55-1.92-1.17-2.762c-0.62-0.84-1.529-1.529-2.729-2.068c-1.2-0.541-2.819-0.811-4.86-0.811c-3.24,0-5.76,0.791-7.56,2.369   c-1.8,1.582-2.8,3.811-3,6.691h-1.2C717.451,563.664,717.751,562.314,718.271,561.055z M738.012,568.285   c-0.4,0.561-1.021,0.99-1.86,1.289c-0.84,0.301-1.8,0.531-2.88,0.691s-2.25,0.26-3.51,0.299c-1.26,0.041-2.49,0.102-3.69,0.18   c-1.2,0.082-2.37,0.23-3.51,0.451s-2.151,0.619-3.03,1.199c-0.881,0.58-1.58,1.381-2.1,2.4c-0.521,1.02-0.78,2.35-0.78,3.99   c0,0.881,0.149,1.75,0.45,2.609c0.3,0.861,0.81,1.621,1.529,2.279c0.721,0.66,1.65,1.201,2.791,1.621   c1.14,0.42,2.549,0.629,4.229,0.629c1.999,0,3.78-0.338,5.34-1.02c1.56-0.68,2.87-1.568,3.931-2.67   c1.059-1.1,1.859-2.369,2.399-3.811c0.54-1.439,0.81-2.918,0.81-4.439v-5.699H738.012z"
       id="path3203" /><path
       d="M746.29,596.965v-41.4h1.2v8.641h0.12c0.399-1.359,0.979-2.609,1.739-3.75s1.66-2.131,2.701-2.971   c1.039-0.84,2.229-1.49,3.569-1.949c1.34-0.459,2.79-0.689,4.351-0.689c2.039,0,3.869,0.398,5.49,1.199   c1.619,0.801,3,1.92,4.139,3.359c1.141,1.441,2.011,3.141,2.611,5.1c0.6,1.961,0.899,4.102,0.899,6.42   c0,2.16-0.29,4.221-0.87,6.182c-0.58,1.959-1.42,3.68-2.52,5.16c-1.102,1.479-2.471,2.65-4.11,3.51   c-1.641,0.859-3.521,1.289-5.64,1.289c-3.281,0-5.98-0.85-8.101-2.549c-2.12-1.701-3.54-3.951-4.26-6.75h-0.12v19.199H746.29z    M765.4,584.574c1.5-0.9,2.73-2.059,3.689-3.479c0.961-1.42,1.67-3.021,2.131-4.801c0.459-1.779,0.689-3.57,0.689-5.371   c0-1.998-0.25-3.889-0.75-5.67c-0.5-1.779-1.24-3.359-2.22-4.738c-0.981-1.381-2.22-2.471-3.72-3.271   c-1.5-0.799-3.251-1.199-5.25-1.199c-1.961,0-3.721,0.4-5.28,1.199c-1.56,0.801-2.87,1.881-3.931,3.24   c-1.061,1.361-1.869,2.939-2.43,4.74s-0.84,3.701-0.84,5.699c0,4.842,1.141,8.551,3.42,11.131c2.28,2.58,5.3,3.869,9.061,3.869   C762.09,585.924,763.9,585.475,765.4,584.574z"
       id="path3205" /><path
       d="M823.81,585.205v1.199h-28.68v-42.84h28.44v1.201h-27.24v18.719h25.619v1.201H796.33v20.52H823.81z"
       id="path3207" /><path
       d="M852.609,543.564v42.84h-1.201v-8.639h-0.119c-0.801,2.76-2.271,5-4.41,6.719c-2.141,1.721-4.791,2.58-7.95,2.58   c-2.04,0-3.87-0.4-5.489-1.199c-1.621-0.801-3-1.91-4.141-3.33s-2.01-3.109-2.609-5.07c-0.601-1.959-0.9-4.1-0.9-6.42   c0-2.16,0.289-4.221,0.869-6.18s1.42-3.68,2.521-5.16s2.47-2.66,4.11-3.541c1.64-0.879,3.52-1.318,5.64-1.318   c3.28,0,5.979,0.859,8.101,2.578c2.119,1.721,3.539,3.982,4.26,6.781h0.119v-20.641H852.609z M847.988,559.914   c-2.279-2.58-5.3-3.869-9.06-3.869c-2.08,0-3.88,0.449-5.399,1.35c-1.521,0.9-2.76,2.061-3.721,3.48   c-0.959,1.42-1.67,3.02-2.13,4.799c-0.46,1.781-0.69,3.57-0.69,5.371c0,1.961,0.25,3.84,0.75,5.641   c0.5,1.799,1.24,3.389,2.221,4.77c0.979,1.379,2.22,2.471,3.72,3.27c1.5,0.801,3.249,1.199,5.25,1.199c2,0,3.771-0.398,5.31-1.199   c1.54-0.799,2.84-1.879,3.9-3.24c1.06-1.359,1.869-2.939,2.43-4.74c0.561-1.799,0.84-3.699,0.84-5.699   C851.408,566.205,850.27,562.494,847.988,559.914z"
       id="path3209" /><path
       d="M859.628,549.625v-6.061h1.2v6.061H859.628z M859.628,586.404v-30.84h1.2v30.84H859.628z"
       id="path3211" /><path
       d="M870.728,580.404c0,1.16,0.13,2.061,0.39,2.701c0.26,0.639,0.59,1.119,0.99,1.439c0.399,0.32,0.84,0.51,1.32,0.57   c0.479,0.059,0.959,0.09,1.439,0.09c0.6,0,1.141-0.01,1.62-0.031c0.479-0.02,0.819-0.068,1.021-0.148v1.199   c-0.36,0.041-0.711,0.08-1.051,0.121c-0.34,0.039-0.97,0.059-1.89,0.059c-1.4,0-2.591-0.41-3.569-1.23   c-0.981-0.818-1.471-2.328-1.471-4.529v-23.879h-5.641v-1.201h5.641v-9.719h1.2v9.719h6.96v1.201h-6.96V580.404z"
       id="path3213" /><path
       d="M881.168,564.895c0.6-1.939,1.489-3.65,2.67-5.129c1.179-1.48,2.629-2.67,4.35-3.57c1.719-0.9,3.72-1.35,6-1.35   c2.24,0,4.22,0.449,5.939,1.35s3.17,2.09,4.351,3.57c1.179,1.479,2.069,3.189,2.67,5.129c0.601,1.941,0.899,3.971,0.899,6.09   c0,2.121-0.299,4.15-0.899,6.09c-0.601,1.941-1.491,3.65-2.67,5.131c-1.181,1.48-2.631,2.66-4.351,3.539   c-1.72,0.881-3.72,1.32-6,1.32c-2.24,0-4.221-0.439-5.939-1.32c-1.721-0.879-3.171-2.059-4.35-3.539   c-1.181-1.48-2.07-3.189-2.67-5.131c-0.601-1.939-0.9-3.969-0.9-6.09C880.268,568.865,880.567,566.836,881.168,564.895z    M882.277,576.625c0.54,1.799,1.35,3.391,2.43,4.77c1.08,1.381,2.41,2.48,3.99,3.301s3.41,1.229,5.49,1.229   c2.04,0,3.85-0.408,5.43-1.229s2.91-1.92,3.99-3.301c1.08-1.379,1.891-2.971,2.43-4.77c0.541-1.801,0.811-3.68,0.811-5.641   c0-1.92-0.27-3.779-0.811-5.58c-0.539-1.799-1.35-3.389-2.43-4.77s-2.41-2.49-3.99-3.33s-3.39-1.26-5.43-1.26   c-2.08,0-3.91,0.42-5.49,1.26s-2.91,1.949-3.99,3.33s-1.89,2.971-2.43,4.77c-0.54,1.801-0.811,3.66-0.811,5.58   C881.467,572.945,881.737,574.824,882.277,576.625z"
       id="path3215" /><path
       d="M913.027,586.404v-30.84h1.199v7.621h0.121c0.279-1.16,0.719-2.25,1.319-3.271c0.601-1.02,1.399-1.908,2.399-2.67   c1-0.758,2.19-1.359,3.57-1.799c1.381-0.439,2.99-0.641,4.83-0.6v1.199c-2.121-0.121-3.95,0.17-5.49,0.869   c-1.54,0.701-2.811,1.66-3.81,2.881c-1.001,1.221-1.739,2.631-2.22,4.23s-0.721,3.24-0.721,4.92v17.459H913.027z"
       id="path3217" /></g><text
     xml:space="preserve"
     style="font-size:40px;font-style:normal;font-weight:normal;line-height:125%;letter-spacing:0px;word-spacing:0px;fill:#000000;fill-opacity:1;stroke:none;font-family:Sans"
     x="449.14102"
     y="555.87701"
     id="text4073"
     sodipodi:linespacing="125%"
     transform="translate(-1.4056594e-5,0)"><tspan
       sodipodi:role="line"
       id="tspan4075"></tspan></text>
</svg>